<svg width="64" height="64" viewBox="0 0 56 56" xmlns="http://www.w3.org/2000/svg">
  <circle cx="28" cy="28" r="28" fill="#0f1e3d" />
  <path
    d="M17.5 16c-2 0-3.6 1.8-3.6 4 0 1.6.8 3 2 3.7-.3.9-.5 1.9-.5 2.9 0 4.9 4.7 8.9 10.6 8.9s10.6-4 10.6-8.9c0-1-.2-2-.5-2.9 1.2-.7 2-2.1 2-3.7 0-2.2-1.6-4-3.6-4-1.5 0-2.8 1-3.3 2.4-1.6-.9-3.4-1.4-5.2-1.4s-3.6.5-5.2 1.4c-.5-1.4-1.8-2.4-3.3-2.4Z"
    fill="white"
  />
  <ellipse cx="23.5" cy="27.5" rx="1.4" ry="1.7" fill="#0f1e3d" />
  <ellipse cx="32.5" cy="27.5" rx="1.4" ry="1.7" fill="#0f1e3d" />
  <path
    d="M27 21.5c1.1-1.6 3.4-2 4.9-.7 1.4 1.2 1.5 3.3.2 4.7l-4.7 5-4.9-4.8c-1.3-1.4-1.3-3.5.1-4.8 1.4-1.3 3.7-1 4.8.6Z"
    fill="#ff5c8a"
  />
</svg>
